<?xml version="1.0" encoding="UTF-8" standalone="no"?>
<svg width="100%" height="100%" viewBox="0 0 48 48" version="1.1" xmlns="http://www.w3.org/2000/svg" xmlns:xlink="http://www.w3.org/1999/xlink" xml:space="preserve" xmlns:serif="http://www.serif.com/" style="fill-rule:evenodd;clip-rule:evenodd;stroke-linejoin:round;stroke-miterlimit:2;">
    <g transform="matrix(0.09375,0,0,-0.09375,0,48.02)">
        <path d="M406.2,119.47C306.028,113.094 205.552,113.094 105.38,119.47C79.962,121.217 55.14,144.021 52.07,169.518C45.223,229.605 45.223,289.688 52.07,349.778C55.14,375.274 79.962,398.078 105.38,399.826C205.552,406.202 306.028,406.202 406.2,399.826C431.619,398.078 456.44,375.274 459.511,349.778C466.357,289.691 466.357,229.608 459.511,169.518C456.44,144.021 431.618,121.218 406.2,119.47ZM348.36,145.31C353.812,145.31 358.273,149.772 358.273,155.224C358.273,160.675 353.812,165.137 348.36,165.137L163.22,165.137C157.768,165.137 153.306,160.675 153.306,155.224C153.306,149.772 157.768,145.31 163.22,145.31L348.36,145.31ZM396.54,185.12C402.04,185.12 406.539,189.62 406.539,195.119C406.539,200.619 402.04,205.118 396.54,205.118L115.049,205.118C109.549,205.118 105.05,200.618 105.05,195.119C105.05,189.62 109.549,185.12 115.049,185.12L396.54,185.12Z"/>
    </g>
</svg>
