<?xml version="1.0" encoding="UTF-8" standalone="no"?><!DOCTYPE svg PUBLIC "-//W3C//DTD SVG 1.1//EN" "http://www.w3.org/Graphics/SVG/1.1/DTD/svg11.dtd"><svg width="100%" height="100%" viewBox="0 0 512 512" version="1.1" xmlns="http://www.w3.org/2000/svg" xmlns:xlink="http://www.w3.org/1999/xlink" xml:space="preserve" xmlns:serif="http://www.serif.com/" style="fill-rule:evenodd;clip-rule:evenodd;"><circle id="svg_11" cx="256" cy="256" r="220.9" style="fill:#443c3c;fill-opacity:0;stroke:#000;stroke-width:20px;"/><circle id="svg_13" cx="256" cy="256" r="189.7" style="fill:#eee;fill-opacity:0;stroke:#000;stroke-width:20px;"/><circle id="svg_14" cx="255.3" cy="256.7" r="133" style="fill-opacity:0;stroke:#000;stroke-width:20px;"/><path id="svg_3" d="M87.2,341c0,0 -2.5,-178.7 -2.9,-179c0.3,-26.7 8.8,-24 15.3,-24.8c99.7,5.4 136,35.8 138.2,36.9c6.7,2.5 10.5,16 10.2,15.6c0.3,0.3 2.2,211.1 1.9,210.8c1.6,11.3 -6.7,10.5 -7,10.2c-62.7,-49.3 -149.4,-61.7 -149.7,-62c-6,-0.5 -6,-7.7 -6,-7.7Z" style="fill-rule:nonzero;stroke:#000;stroke-width:10px;"/><path id="svg_4" d="M423.5,341.4c0,0 2.5,-179.1 2.9,-179.5c-0.3,-26.7 -8.8,-24.1 -15.3,-24.9c-99.7,5.4 -136,35.9 -138.2,37c-6.7,2.5 -10.5,16 -10.2,15.7c-0.3,0.3 -2.2,211.6 -1.9,211.3c-1.6,11.3 6.7,10.6 7,10.2c62.7,-49.4 149.4,-61.8 149.7,-62.2c6,-0.3 6,-7.6 6,-7.6Z" style="fill-rule:nonzero;stroke:#000;stroke-width:10px;"/><path id="svg_5" d="M85.9,369.7c0,0 -2.6,-178.7 -2.9,-179c0.3,-26.7 8.9,-24 15.5,-24.8c101.3,5.4 138.2,35.8 140.4,36.9c6.8,2.5 10.7,16 10.4,15.6c0.3,0.3 2.3,211.1 1.9,210.8c1.6,11.3 -6.8,10.5 -7.1,10.2c-63.8,-49.3 -151.8,-61.7 -152.1,-62c-6.1,-0.4 -6.1,-7.7 -6.1,-7.7Z" style="fill-rule:nonzero;stroke:#000;stroke-width:5px;"/><path id="svg_6" d="M424.8,370c0,0 2.6,-179.1 2.9,-179.5c-0.3,-26.7 -8.9,-24.1 -15.5,-24.9c-101.3,5.4 -138.2,35.9 -140.5,37c-6.8,2.5 -10.7,16 -10.4,15.7c-0.3,0.3 -2.3,211.6 -1.9,211.3c-1.6,11.3 6.8,10.6 7.1,10.2c63.8,-49.4 151.8,-61.8 152.1,-62.2c6.2,-0.3 6.2,-7.6 6.2,-7.6Z" style="fill-rule:nonzero;stroke:#000;stroke-width:5px;"/></svg>