<svg viewBox="0 0 520 520" xmlns="http://www.w3.org/2000/svg" class="w-6"><path d="m76.802 407.32 237.94 23.482c4.794 14.937 11.149 29.517 20.259 40.256l-230.27-30.125c-10.248-6.752-20.861-19.877-27.936-33.612zm222.88-75.298c.6 20.906 3.432 47.964 8.346 71.017l-241.15-19.083c-7.518-22.739-9.846-35.959-11.704-54.885l244.51 2.951zm8.346-102.71c-4.914 23.053-7.745 50.111-8.346 71.017l-244.51 2.951c1.858-18.926 4.186-32.146 11.704-54.885l241.15-19.083zm26.973-68.019c-9.11 10.74-15.465 25.318-20.259 40.257l-237.94 23.48c7.075-13.735 17.69-26.859 27.936-33.612l230.27-30.125z" fill="#fff"></path><path d="M336.57 404.67c3.155-7.82 14.337-12.586 22.367-12.028 8.582.596 17.699 9.626 19.292 18.507.296-.322.606-.627.92-.927 2.757-2.636 6.21-4.385 9.988-4.866a22.57 22.57 0 0 1-.32-8.12c1.395-9.9 9.333-17.325 18.421-17.251 5.865.047 11.011 3.05 14.364 7.665.3-.375.63-.719.953-1.07 3.834-19.99 6.264-42.577 6.817-66.546 1.9-82.42-18.993-149.75-46.663-150.39-27.672-.64-51.644 65.656-53.544 148.08 0 0-1.465 30.062 7.405 86.95" fill="#00641E"></path><path d="M523.91 494.8c1.635-2.732 2.55-6.007 2.486-9.487.53-11.245-7.182-21.44-17.913-20.31a22.57 22.57 0 0 0 .592-4.003c.643-11.264-7.119-20.972-17.337-21.682a21.444 21.444 0 0 0-.667-.028 22.33 22.33 0 0 0 1.402-9.223c-.528-9.371-6.985-17.268-15.386-18.822a16.906 16.906 0 0 0-8.671.652c-2.546-6.277-7.891-10.933-14.393-11.916-.515-10.192-7.87-18.58-17.34-19.238-5.955-.413-11.426 2.324-15.085 6.906-3.353-4.614-8.499-7.615-14.364-7.663-9.089-.075-17.027 7.35-18.422 17.252a22.573 22.573 0 0 0 .32 8.119c-3.778.48-7.231 2.23-9.987 4.865-.315.3-.625.604-.92.927-1.594-8.882-10.71-17.91-19.293-18.507-8.029-.558-19.357 4.324-22.367 12.028 1.32 13.434 9.71 50.053 40.055 82.903l.27.019c2.926 2.65 6.746 4.11 10.818 3.746 2.525-.226 4.85-1.13 6.853-2.525l.488.034c2.67 1.855 5.88 2.826 9.27 2.525a13.938 13.938 0 0 0 3.707-.873c2.907 6.014 9.388 9.901 16.622 9.263a17.45 17.45 0 0 0 13.164-7.961l.907.063c2.796 2.774 6.513 4.39 10.522 4.269 3.314 5.019 9.402 8.106 16.12 7.516a18.464 18.464 0 0 0 6.998-2.064c3.514 4.326 9.281 6.899 15.61 6.342 6.255-.549 11.54-4.02 14.413-8.82 2.824 2.27 6.363 3.487 10.12 3.152 3.645-.326 6.884-2.048 9.318-4.654l.406.028a24.5 24.5 0 0 0 1.466-2.453l.028-.05c.06-.11.133-.218.189-.33" fill="gold"></path><path d="m314.75 201.547-237.94 23.48c7.075-13.735 17.689-26.859 27.936-33.612l230.27-30.125c-9.11 10.74-15.465 25.318-20.259 40.257zm20.259 269.51-230.27-30.125c-10.248-6.752-20.861-19.877-27.936-33.611l237.94 23.48c4.794 14.937 11.149 29.517 20.259 40.256zm-268.13-87.102c-7.518-22.739-9.847-35.957-11.704-54.885l244.51 2.951c.6 20.906 3.432 47.964 8.346 71.017l-241.15-19.083zm0-135.56 241.15-19.083c-4.915 23.053-7.746 50.111-8.346 71.019l-244.51 2.95c1.857-18.927 4.186-32.147 11.704-54.886zm344.72-82.679c-15.255-17.778-26.206-26.124-35.587-25.04-1.75.223-266.89 37.222-266.89 37.222-42.074 4.283-75.7 65.432-76.117 138.28.417 72.843 34.043 133.99 76.117 138.28 0 0 265.64 37.135 266.89 37.221a27.043 27.043 0 0 0 6.567-.866 14.721 14.721 0 0 1-5.686-3.214l-.27-.019c-30.345-32.848-38.735-69.47-40.055-82.903.003-.01.01-.02.014-.03l-.014.03c-8.87-56.889-7.404-86.95-7.404-86.95 1.9-82.42 25.872-148.72 53.544-148.08 27.67.639 48.562 67.972 46.663 150.39-.553 23.968-2.984 46.555-6.818 66.546 3.94-4.351 9.223-6.184 14.133-5.837.903.065 1.782.217 2.644.415 16.804-92.03-.813-181.89-27.73-215.44z" fill="#04A53C"></path></svg>